<svg xmlns="http://www.w3.org/2000/svg" xmlns:xlink="http://www.w3.org/1999/xlink" width="52" height="52" viewBox="0 0 52 52">
  <defs>
    <clipPath id="clip-ic-simplified">
      <rect width="52" height="52"/>
    </clipPath>
  </defs>
  <g id="ic-simplified" clip-path="url(#clip-ic-simplified)">
    <g id="Group_18" data-name="Group 18" transform="translate(-3.708 4.349)">
      <path id="Path_8" data-name="Path 8" d="M20.438,21.3a1.478,1.478,0,0,1-1.045-2.522l5.658-5.658L19.393,7.461a1.478,1.478,0,0,1,2.09-2.09l6.7,6.7a1.478,1.478,0,0,1,0,2.09l-6.7,6.7A1.473,1.473,0,0,1,20.438,21.3Z" transform="translate(25.421 7.485)" fill="#07b0c4"/>
      <path id="Path_11" data-name="Path 11" d="M51.98,1.455H6.3A1.478,1.478,0,0,1,4.823-.022,1.478,1.478,0,0,1,6.3-1.5H51.98A1.478,1.478,0,0,1,53.458-.022,1.478,1.478,0,0,1,51.98,1.455Z" transform="translate(0.582 20.627)" fill="#07b0c4"/>
      <path id="Path_9" data-name="Path 9" d="M15.438,28.3a1.478,1.478,0,0,1-1.045-2.522l5.658-5.658-5.658-5.658a1.478,1.478,0,0,1,2.09-2.09l6.7,6.7,0,0a1.473,1.473,0,0,1,.43.99q0,.026,0,.053t0,.053v0a1.472,1.472,0,0,1-.43.988l0,0-6.7,6.7A1.473,1.473,0,0,1,15.438,28.3Z" transform="translate(19.249 16.126)" fill="#07b0c4"/>
      <path id="Line_7" data-name="Line 7" d="M-.023,1.85A1.478,1.478,0,0,1-1.5.389,1.478,1.478,0,0,1-.039-1.1L34.5-1.5A1.478,1.478,0,0,1,35.993-.039a1.478,1.478,0,0,1-1.461,1.494L-.005,1.85Z" transform="translate(6.875 36.268)" fill="#07b0c4"/>
      <path id="Path_10" data-name="Path 10" d="M15.353,15.237a1.478,1.478,0,0,1-1.045-2.522l5.658-5.658L14.308,1.4A1.478,1.478,0,1,1,16.4-.692l6.7,6.7a1.478,1.478,0,0,1,0,2.09l-6.7,6.7A1.473,1.473,0,0,1,15.353,15.237Z" transform="translate(19.144)" fill="#07b0c4"/>
      <path id="Line_8" data-name="Line 8" d="M34.325,1.682h-.01L-.032,1.455A1.478,1.478,0,0,1-1.5-.032,1.478,1.478,0,0,1-.013-1.5l34.348.227a1.478,1.478,0,0,1-.01,2.955Z" transform="translate(6.875 6.852)" fill="#07b0c4"/>
    </g>
  </g>
</svg>
